Coordinates
version=1
nRows=43
nColumns=12
inDegrees=yes

Units are S.I. units (second, meters, Newtons, ...)
Angles are in degrees

endheader
time	SC_y	SC_z	SC_x	AC_y	AC_z	AC_x	GH_y	GH_z	GH_yy	EL_x	PS_y
       0.0               -39.9          4.281          44.85          64.77          6.298          2.962         -164.5          53.06         -154.0          6.857           77.8
 0.0007802               -39.9          4.284          44.84          64.76          6.295          2.963         -164.4          53.06         -153.9          6.873           77.8
   0.00156               -39.9          4.288          44.84          64.76          6.292          2.964         -164.4          53.05         -153.9          6.891           77.8
  0.002341              -39.89          4.291          44.84          64.76          6.289          2.965         -164.4          53.04         -153.9           6.91           77.8
  0.003121              -39.89          4.295          44.84          64.75          6.285          2.966         -164.4          53.03         -153.9          6.929           77.8
  0.003901              -39.89            4.3          44.83          64.75          6.282          2.967         -164.4          53.02         -153.9          6.951           77.8
  0.004681              -39.89          4.304          44.83          64.74          6.278          2.969         -164.4          53.01         -153.9          6.973           77.8
  0.005461              -39.89          4.309          44.83          64.74          6.274           2.97         -164.3           53.0         -153.8          6.997           77.8
  0.006242              -39.88          4.314          44.83          64.73          6.269          2.972         -164.3          52.99         -153.8          7.023           77.8
  0.007022              -39.88           4.32          44.82          64.72          6.265          2.973         -164.3          52.98         -153.8          7.051           77.8
  0.007802              -39.88          4.326          44.82          64.72           6.26          2.975         -164.3          52.97         -153.8          7.081           77.8
  0.008582              -39.88          4.332          44.81          64.71          6.254          2.977         -164.3          52.95         -153.7          7.113           77.8
  0.009362              -39.87          4.339          44.81           64.7          6.248          2.979         -164.2          52.94         -153.7          7.147           77.8
   0.01014              -39.87          4.347           44.8          64.69          6.242          2.981         -164.2          52.92         -153.7          7.185           77.8
   0.01092              -39.87          4.355           44.8          64.68          6.235          2.983         -164.2           52.9         -153.6          7.225           77.8
    0.0117              -39.86          4.364          44.79          64.67          6.228          2.986         -164.1          52.88         -153.6          7.269           77.8
   0.01248              -39.86          4.373          44.79          64.66          6.219          2.989         -164.1          52.86         -153.5          7.317           77.8
   0.01326              -39.86          4.384          44.78          64.65          6.211          2.991         -164.1          52.84         -153.5          7.368           77.8
   0.01404              -39.85          4.395          44.78          64.64          6.201          2.995         -164.0          52.81         -153.4          7.425           77.8
   0.01482              -39.85          4.408          44.77          64.63           6.19          2.998         -164.0          52.79         -153.4          7.487           77.8
    0.0156              -39.84          4.421          44.76          64.61          6.179          3.002         -163.9          52.76         -153.3          7.555          77.81
   0.01638              -39.83          4.436          44.75          64.59          6.166          3.007         -163.9          52.72         -153.2           7.63          77.81
   0.01716              -39.83          4.453          44.74          64.57          6.152          3.011         -163.8          52.69         -153.2          7.713          77.81
   0.01794              -39.82          4.472          44.73          64.55          6.136          3.017         -163.7          52.65         -153.1          7.805          77.81
   0.01872              -39.81          4.492          44.72          64.53          6.119          3.022         -163.7           52.6         -153.0          7.907          77.81
    0.0195               -39.8          4.515           44.7           64.5            6.1          3.029         -163.6          52.55         -152.9           8.02          77.81
   0.02029              -39.79          4.541          44.69          64.48          6.078          3.036         -163.5          52.49         -152.7          8.148          77.81
   0.02107              -39.78           4.57          44.67          64.44          6.053          3.045         -163.4          52.43         -152.6          8.291          77.81
   0.02185              -39.76          4.602          44.65          64.41          6.026          3.054         -163.3          52.36         -152.5          8.453          77.81
   0.02263              -39.75          4.639          44.62          64.37          5.995          3.064         -163.1          52.28         -152.3          8.637          77.81
   0.02341              -39.73          4.682           44.6          64.32          5.959          3.076         -163.0          52.19         -152.1          8.847          77.81
   0.02419              -39.71           4.73          44.57          64.26          5.918           3.09         -162.8          52.08         -151.9          9.088          77.81
   0.02497              -39.69          4.786          44.53           64.2           5.87          3.106         -162.6          51.96         -151.6          9.367          77.81
   0.02575              -39.66          4.851          44.49          64.13          5.815          3.125         -162.3          51.81         -151.3           9.69          77.81
   0.02653              -39.63          4.927          44.45          64.04          5.751          3.147         -162.0          51.65         -150.9          10.07          77.82
   0.02731              -39.59          5.017          44.39          63.94          5.675          3.172         -161.7          51.45         -150.5          10.51          77.82
   0.02809              -39.55          5.124          44.32          63.82          5.585          3.203         -161.3          51.22         -150.0          11.04          77.82
   0.02887              -39.49          5.252          44.25          63.68          5.477          3.239         -160.8          50.94         -149.4          11.68          77.82
   0.02965              -39.43          5.406          44.15           63.5          5.346          3.283         -160.3           50.6         -148.7          12.45          77.83
   0.03043              -39.35          5.595          44.03          63.29          5.186          3.337         -159.6          50.18         -147.8          13.39          77.83
   0.03121              -39.25          5.829          43.89          63.03          4.989          3.404         -158.7          49.67         -146.7          14.55          77.84
   0.03199              -39.13           6.12          43.71           62.7          4.743          3.487         -157.6          49.03         -145.3          15.99          77.84
   0.03277              -38.98          6.486          43.48          62.29          4.433          3.592         -156.2          48.23         -143.6          17.81          77.85
